<svg width="100" height="120" viewBox="0 0 100 120" fill="none" xmlns="http://www.w3.org/2000/svg">
<path d="M30 42C30 35.3726 35.3726 30 42 30H50V55H30V42Z" fill="#00AFE7"/>
<path fill-rule="evenodd" clip-rule="evenodd" d="M50 94C40.6182 94 34.489 90.4177 30.7722 85.793C27.1355 81.2679 25.917 75.8842 26.0043 72.2745V50.6182C25.9184 46.4263 27.0963 40.3351 30.6978 35.2296C34.1123 30.3893 39.6479 26.5315 48 26L52 26C60.3521 26.5315 65.8877 30.3893 69.3022 35.2296C72.9037 40.3351 74.0816 46.4263 73.9957 50.6182V72.2745C74.0829 75.8842 72.8645 81.2679 69.2277 85.793C65.511 90.4177 59.3818 94 50 94ZM30.004 50.5558C29.9277 47.0215 30.9495 41.781 33.9813 37.4832C36.6895 33.644 41.054 30.4668 48 29.9551V55.0367H52L52 29.9551C58.9459 30.4668 63.3105 33.644 66.0187 37.4832C69.0505 41.781 70.0723 47.0215 69.996 50.5558L69.9956 50.5768V72.3242L69.9962 72.3495C70.0691 75.1514 69.087 79.6167 66.0931 83.3419C63.1705 86.9784 58.2185 90.0543 50 90.0543C41.7814 90.0543 36.8295 86.9784 33.9068 83.3419C30.913 79.6167 29.9309 75.1514 30.0038 72.3495L30.0044 72.3242V50.5768L30.004 50.5558Z" fill="white"/>
<path fill-rule="evenodd" clip-rule="evenodd" d="M61.0001 14.9285L50.0001 0L39.0001 14.9285H47.9945V22H52.0055V14.9285H61.0001Z" fill="white"/>
<path fill-rule="evenodd" clip-rule="evenodd" d="M38.9999 105.071L49.9999 120L60.9999 105.071H52.0055V98H47.9945V105.071H38.9999Z" fill="white"/>
<path fill-rule="evenodd" clip-rule="evenodd" d="M85.0715 70.9556L100 59.9556L85.0715 48.9556V57.95H78V61.9611H85.0715V70.9556Z" fill="white"/>
<path fill-rule="evenodd" clip-rule="evenodd" d="M15.0174 70.9556L0.0888672 59.9556L15.0174 48.9556V57.95L22.0889 57.95V61.9611L15.0174 61.9611L15.0174 70.9556Z" fill="white"/>
</svg>
