<svg width="100" height="120" viewBox="0 0 100 120" fill="none" xmlns="http://www.w3.org/2000/svg">
<path d="M29.9111 42C29.9111 35.3726 35.2837 30 41.9111 30H49.9111V55H29.9111V42Z" fill="#00AFE7"/>
<path fill-rule="evenodd" clip-rule="evenodd" d="M49.9111 94C40.5293 94 34.4001 90.4177 30.6834 85.793C27.0466 81.2679 25.8282 75.8842 25.9155 72.2745V50.6182C25.8295 46.4263 27.0075 40.3351 30.609 35.2296C34.0234 30.3893 39.559 26.5315 47.9111 26L51.9112 26C60.2633 26.5315 65.7989 30.3893 69.2133 35.2296C72.8148 40.3351 73.9927 46.4263 73.9068 50.6182V72.2745C73.9941 75.8842 72.7756 81.2679 69.1389 85.793C65.4221 90.4177 59.293 94 49.9111 94ZM29.9151 50.5558C29.8389 47.0215 30.8607 41.781 33.8924 37.4832C36.6006 33.644 40.9652 30.4668 47.9111 29.9551V55.0366H51.9112L51.9112 29.9551C58.8571 30.4668 63.2216 33.644 65.9299 37.4832C68.9616 41.781 69.9834 47.0215 69.9072 50.5558L69.9067 50.5768V72.3242L69.9074 72.3495C69.9802 75.1514 68.9981 79.6167 66.0043 83.3419C63.0817 86.9784 58.1297 90.0543 49.9111 90.0543C41.6926 90.0543 36.7406 86.9784 33.818 83.3419C30.8242 79.6167 29.8421 75.1514 29.9149 72.3495L29.9156 72.3242V50.5768L29.9151 50.5558Z" fill="white"/>
<path fill-rule="evenodd" clip-rule="evenodd" d="M60.9111 14.9285L49.9111 0L38.9111 14.9285H47.9056V22H51.9166V14.9285H60.9111Z" fill="white"/>
<path fill-rule="evenodd" clip-rule="evenodd" d="M38.9111 105.071L49.9111 120L60.9111 105.071H51.9167V98H47.9056V105.071H38.9111Z" fill="white"/>
<path fill-rule="evenodd" clip-rule="evenodd" d="M84.9826 70.9556L99.9111 59.9556L84.9826 48.9556V57.95H77.9111V61.9611H84.9826V70.9556Z" fill="white"/>
<path fill-rule="evenodd" clip-rule="evenodd" d="M14.9285 70.9556L0 59.9556L14.9285 48.9556V57.95H22V61.9611H14.9285L14.9285 70.9556Z" fill="white"/>
</svg>
