<svg width="100" height="120" viewBox="0 0 100 120" fill="none" xmlns="http://www.w3.org/2000/svg">
<path d="M70 42C70 35.3726 64.6274 30 58 30H50V55H70V42Z" fill="#00AFE7"/>
<path fill-rule="evenodd" clip-rule="evenodd" d="M50 94C59.3818 94 65.511 90.4177 69.2278 85.793C72.8645 81.2679 74.083 75.8842 73.9957 72.2745V50.6182C74.0816 46.4263 72.9037 40.3351 69.3022 35.2296C65.8877 30.3893 60.3521 26.5315 52 26L48 26C39.6479 26.5315 34.1123 30.3893 30.6978 35.2296C27.0963 40.3351 25.9184 46.4263 26.0043 50.6182V72.2745C25.9171 75.8842 27.1355 81.2679 30.7723 85.793C34.489 90.4177 40.6182 94 50 94ZM69.996 50.5558C70.0723 47.0215 69.0505 41.781 66.0187 37.4832C63.3105 33.644 58.946 30.4668 52 29.9551V55.0366H48L48 29.9551C41.0541 30.4668 36.6895 33.644 33.9813 37.4832C30.9495 41.781 29.9277 47.0215 30.004 50.5558L30.0044 50.5768V72.3242L30.0038 72.3495C29.9309 75.1514 30.913 79.6167 33.9069 83.3419C36.8295 86.9784 41.7815 90.0543 50 90.0543C58.2186 90.0543 63.1705 86.9784 66.0932 83.3419C69.087 79.6167 70.0691 75.1514 69.9962 72.3495L69.9956 72.3242V50.5768L69.996 50.5558Z" fill="white"/>
<path fill-rule="evenodd" clip-rule="evenodd" d="M39 14.9285L50 0L61 14.9285H52.0056V22H47.9945V14.9285H39Z" fill="white"/>
<path fill-rule="evenodd" clip-rule="evenodd" d="M61 105.071L50 120L39 105.071H47.9944V98H52.0055V105.071H61Z" fill="white"/>
<path fill-rule="evenodd" clip-rule="evenodd" d="M14.9285 70.9556L0 59.9556L14.9285 48.9556V57.95H22V61.9611H14.9285L14.9285 70.9556Z" fill="white"/>
<path fill-rule="evenodd" clip-rule="evenodd" d="M84.9826 70.9556L99.9111 59.9556L84.9826 48.9556V57.95H77.9111V61.9611H84.9826V70.9556Z" fill="white"/>
</svg>
