<svg width="48" height="68" viewBox="0 0 48 68" fill="none" xmlns="http://www.w3.org/2000/svg">
<path fill-rule="evenodd" clip-rule="evenodd" d="M24 68C14.6182 68 8.48901 64.4177 4.77225 59.793C1.1355 55.2679 -0.082952 49.8842 0.00433982 46.2745V24.6182C-0.0816175 20.4263 1.09634 14.3351 4.69783 9.22965C8.11226 4.38932 13.6479 0.531535 22 1.46987e-08L26 0C34.3521 0.531535 39.8877 4.38932 43.3022 9.22965C46.9037 14.3351 48.0816 20.4263 47.9957 24.6182V46.2745C48.0829 49.8842 46.8645 55.2679 43.2277 59.793C39.511 64.4177 33.3818 68 24 68ZM4.00397 24.5558C3.92774 21.0215 4.94954 15.781 7.98127 11.4832C10.6895 7.64404 15.054 4.46678 22 3.95509V29.0367H26L26 3.95509C32.9459 4.46678 37.3105 7.64404 40.0187 11.4832C43.0505 15.781 44.0723 21.0215 43.996 24.5558L43.9956 24.5768V46.3242L43.9962 46.3495C44.0691 49.1514 43.087 53.6167 40.0931 57.3419C37.1705 60.9784 32.2185 64.0543 24 64.0543C15.7814 64.0543 10.8295 60.9784 7.90685 57.3419C4.91302 53.6167 3.93093 49.1514 4.00377 46.3495L4.00442 46.3242V24.5768L4.00397 24.5558Z" fill="white"/>
<path fill-rule="evenodd" clip-rule="evenodd" d="M37 15.1071L32.5 9L28 15.1071H31.6796V18H33.3204V15.1071H37Z" fill="white"/>
<path fill-rule="evenodd" clip-rule="evenodd" d="M28 19.8929L32.5 26L37 19.8929H33.3204V17H31.6796V19.8929H28Z" fill="white"/>
<rect x="22" y="9" width="4" height="17" fill="#00AFE7"/>
</svg>
